<?xml version="1.0" encoding="utf-8"?>
<!-- Generator: Adobe Illustrator 26.3.1, SVG Export Plug-In . SVG Version: 6.00 Build 0)  -->
<svg version="1.1" id="Layer_2" xmlns="http://www.w3.org/2000/svg" xmlns:xlink="http://www.w3.org/1999/xlink" x="0px" y="0px"
	 viewBox="0 0 2000 2000" style="enable-background:new 0 0 2000 2000;" xml:space="preserve">
<style type="text/css">
	.st0{fill:#FFAD01;}
	.st1{fill:#9E0F0B;}
	.st2{fill:#9C0F0D;}
	.st3{fill:#3881A3;}
	.st4{fill:#1E6380;}
	.st5{fill:#6DA9C5;}
	.st6{fill:#3782A1;}
</style>
<g>
	<path class="st0" d="M1290.56,728.67c-16.76-16.32-196.62-185.79-440.07-137.92C634.58,633.21,534.51,814,498.67,878.78
		c-39.83,71.96-106.37,192.18-61.98,322.65c4.42,13.02,52.2,146.51,182.29,189.6c38.19,12.64,72.24,13.78,94.8,12.76
		c-42.2,17.61-189.61,72.96-346.36,10.94c-37.82-14.97-123.07-48.7-174.55-136.82c-43.81-75-39.67-149.14-35.09-215.01
		c8.2-117.99,50.44-211.17,85-271.23c12.98-22.58,24.89-40.48,33.5-53.26c20.54-30.51,84.92-121.22,202.78-202.78
		c33.2-22.97,70.66-45.22,112.58-65.19c21.65-10.31,399.29-185.3,573.51-27.48c19.2,17.39,72.23,71.72,102.81,158.74
		C1285.93,652.87,1290.07,698.09,1290.56,728.67z"/>
	<path class="st1" d="M713.78,1403.79c-42.2,17.61-189.61,72.96-346.36,10.94c-37.82-14.97-123.07-48.7-174.55-136.82
		c-43.81-75-39.67-149.14-35.09-215.01c8.2-117.99,50.44-211.17,85-271.23c-18.55,69.37-27.31,154.39-6.61,247.53
		c10.46,47.13,42.97,193.47,182.29,289.85C542.52,1414.87,673.89,1407.54,713.78,1403.79z"/>
	<path class="st2" d="M1290.56,728.67c-8.73-20.32-23.13-49.09-46.3-79.58c-71.63-94.21-169.08-128.48-226.04-147.67
		c-193.33-65.12-368.05-18.79-448.45,3.65c-32.52,9.08-62.79,19.48-90.7,30.55c33.2-22.97,70.66-45.22,112.58-65.19
		c21.65-10.31,399.29-185.3,573.51-27.48c19.2,17.39,72.23,71.72,102.81,158.74C1285.93,652.87,1290.07,698.09,1290.56,728.67z"/>
	<path class="st3" d="M869.81,356.66c0,81.89-66.38,148.27-148.27,148.27c-35.68,0-68.42-12.62-94.02-33.62
		c-33.12-27.19-54.25-68.45-54.25-114.66c0-81.89,66.38-148.27,148.27-148.27c49,0,92.45,23.77,119.43,60.4
		C859.11,293.39,869.81,323.78,869.81,356.66z"/>
	<path class="st3" d="M1213.15,645.31c-690.69,27.3-946.06,59.39-1013.6,88.72c-11.36,4.93-62.21,29.25-101.41,14.38
		c-4.01-1.53-7.9-3.46-11.62-5.87c-23.95-15.53-30.46-44.25-32.81-54.69c-18.06-79.86,59.92-151.89,68.06-159.21
		c122.34-2.8,256.83-0.6,401.49,9.77c65.48,4.69,133.06,11.06,202.54,19.4C905.04,579.31,1068.16,610.47,1213.15,645.31z"/>
	<path class="st4" d="M801.15,947.93c-2.34,109.52,1.53,198.79,5.6,260.79c5.52,84.11,22.12,281.64,28.77,392.16
		c4.74,78.76-0.42,32.67,2.09,72.61c3.9,61.91-3.92,87.46-5.81,108.16c-1.06,11.66-17.24,13.71-21.19,2.69
		c-30.99-86.34-75.79-211.64-138.28-387.96c-28.43-80.2-71.44-203.63-95.77-367.5c-1.81-12.18-3.51-24.59-5.1-37.21
		c-9.82-78.04-14.45-117.66-1.22-147.06c75.13-166.81,468.3-136.89,638.06-123.97c113.54,8.64,280.01,31.21,477.63,96.01
		c-143.53,3.26-306.34,15.54-483.71,43.75C1054.55,883.92,920.37,914.69,801.15,947.93z"/>
	<path class="st5" d="M523.26,538.41c-27.35,16.21-57.28,33.09-90.36,51c-88.17,47.69-200.08,103.31-334.76,159
		c-4.01-1.53-7.9-3.46-11.62-5.87c-23.95-15.53-30.46-44.25-32.81-54.69c-18.06-79.86,59.92-151.89,68.06-159.21
		C244.1,525.84,378.59,528.04,523.26,538.41z"/>
	<path class="st5" d="M840.97,268.79c-22.18,27.76-49.12,58.74-81.15,90.91c-39.09,39.24-80.33,74.8-132.3,111.62
		c-33.12-27.19-54.25-68.45-54.25-114.66c0-81.89,66.38-148.27,148.27-148.27C770.54,208.39,813.99,232.16,840.97,268.79z"/>
	<path class="st6" d="M1685.92,816.68c-143.53,3.26-306.34,15.54-483.71,43.75c-147.67,23.49-281.84,54.27-401.07,87.51
		c-52.83,14.89-110.52,33.96-171.57,58.54c-18.22,7.34-35.9,14.83-53.03,22.42c-1.81-12.18-3.51-24.59-5.1-37.21
		c-9.82-78.04-14.45-117.66-1.22-147.06c75.13-166.81,468.3-136.89,638.06-123.97C1321.83,729.3,1488.3,751.87,1685.92,816.68z"/>
</g>
<g>
	<g>
		<path class="st2" d="M956.72,1127.59v-105.34h52.8v104.27c0,27.07,13.67,39.94,34.58,39.94c20.91,0,34.58-12.33,34.58-38.6
			v-105.61h52.8v104c0,60.58-34.58,87.11-87.92,87.11S956.72,1186.29,956.72,1127.59z"/>
		<path class="st2" d="M1155.87,1116.61v-0.54c0-54.68,42.89-97.57,101.05-97.57c32.97,0,56.29,10.19,76.12,27.34l-30.56,36.72
			c-13.4-11.26-26.8-17.69-45.3-17.69c-27.07,0-47.98,22.78-47.98,51.46v0.54c0,30.29,21.17,52,50.93,52
			c12.6,0,22.25-2.68,30.02-7.77v-22.78h-36.99v-38.06h86.31v84.43c-19.83,16.35-47.44,28.95-81.48,28.95
			C1199.56,1213.63,1155.87,1173.43,1155.87,1116.61z"/>
		<path class="st2" d="M1368.43,1022.26h54.95l44.76,72.64l44.76-72.64h54.95v187.62h-51.73v-107.75l-47.98,73.44h-1.07
			l-47.71-72.91v107.21h-50.93V1022.26z"/>
		<path class="st2" d="M1646.92,1067.82h-56.29v-45.57h164.57v45.57h-56.29v142.06h-52V1067.82z"/>
		<path class="st2" d="M1763.52,1116.61v-0.54c0-54.68,42.08-97.57,98.91-97.57c38.33,0,62.99,16.08,79.61,39.13l-39.13,30.29
			c-10.72-13.4-23.05-21.98-41.01-21.98c-26.27,0-44.76,22.25-44.76,49.59v0.54c0,28.14,18.49,50.12,44.76,50.12
			c19.57,0,31.09-9.11,42.35-22.78l39.13,27.88c-17.69,24.39-41.54,42.35-83.09,42.35
			C1806.67,1213.63,1763.52,1172.62,1763.52,1116.61z"/>
	</g>
</g>
<g>
	<g>
		<path class="st6" d="M1125.21,1265.35c-5.23,3.71-10.39,9.15-15.5,16.32l-10.57-7.66c2.92-4.25,5.89-8.08,8.93-11.47
			c3.04-3.39,6.35-6.22,9.94-8.5c3.58-2.28,7.59-4.01,12.03-5.21c4.44-1.2,9.45-1.8,15.04-1.8c5.83,0,11.15,0.91,15.95,2.74
			c4.8,1.82,8.96,4.35,12.49,7.57c3.52,3.22,6.26,7.05,8.2,11.48c1.94,4.44,2.92,9.27,2.92,14.49c0,4.74-0.64,9.06-1.92,12.94
			c-1.28,3.89-3.25,7.75-5.92,11.58c-2.67,3.83-6.02,7.78-10.03,11.85c-4.01,4.07-8.81,8.54-14.4,13.4l-34.09,30.26h67.63v13.13
			h-89.15v-11.14l46.3-40.9c4.86-4.38,8.99-8.33,12.4-11.87c3.4-3.53,6.17-6.85,8.29-9.95c2.12-3.1,3.65-6.15,4.56-9.13
			c0.91-2.98,1.37-6.06,1.37-9.22c0-3.77-0.7-7.15-2.1-10.13c-1.4-2.98-3.25-5.54-5.56-7.67c-2.31-2.13-5.04-3.77-8.2-4.93
			c-3.16-1.16-6.44-1.73-9.84-1.73C1136.7,1259.79,1130.44,1261.65,1125.21,1265.35z"/>
		<path class="st6" d="M1385.36,1338c-2.55,8.02-6.17,15.04-10.85,21.06c-4.68,6.02-10.36,10.79-17.04,14.31
			c-6.69,3.52-14.1,5.29-22.24,5.29c-8.27,0-15.71-1.73-22.33-5.2c-6.63-3.46-12.28-8.2-16.95-14.22c-4.68-6.02-8.27-13-10.76-20.96
			c-2.49-7.96-3.74-16.44-3.74-25.43c0-8.99,1.28-17.5,3.83-25.52c2.55-8.02,6.17-15.04,10.85-21.06
			c4.68-6.02,10.36-10.78,17.04-14.31c6.68-3.52,14.16-5.29,22.42-5.29c8.14,0,15.52,1.73,22.15,5.2
			c6.62,3.46,12.27,8.2,16.95,14.22c4.68,6.02,8.26,13.01,10.76,20.96c2.49,7.96,3.74,16.44,3.74,25.43
			C1389.19,1321.47,1387.91,1329.98,1385.36,1338z M1371.5,1292.7c-1.82-6.38-4.44-12-7.84-16.86c-3.4-4.86-7.51-8.75-12.31-11.67
			c-4.8-2.92-10.18-4.38-16.13-4.38c-5.96,0-11.33,1.43-16.13,4.28c-4.8,2.86-8.87,6.69-12.21,11.49
			c-3.34,4.8-5.92,10.39-7.75,16.77s-2.73,13.1-2.73,20.14c0,7.05,0.91,13.79,2.73,20.24c1.82,6.44,4.43,12.09,7.84,16.95
			c3.4,4.86,7.53,8.72,12.4,11.58c4.86,2.86,10.27,4.28,16.23,4.28c5.95,0,11.33-1.43,16.13-4.28c4.8-2.85,8.87-6.68,12.21-11.48
			c3.34-4.8,5.89-10.39,7.66-16.77c1.76-6.38,2.64-13.09,2.64-20.14C1374.24,1305.79,1373.33,1299.08,1371.5,1292.7z"/>
		<path class="st6" d="M1508.78,1265.35c-5.23,3.71-10.39,9.15-15.5,16.32l-10.57-7.66c2.92-4.25,5.89-8.08,8.93-11.47
			c3.04-3.39,6.35-6.22,9.94-8.5c3.58-2.28,7.59-4.01,12.03-5.21c4.44-1.2,9.45-1.8,15.04-1.8c5.83,0,11.15,0.91,15.95,2.74
			c4.8,1.82,8.96,4.35,12.49,7.57c3.52,3.22,6.26,7.05,8.2,11.48c1.94,4.44,2.92,9.27,2.92,14.49c0,4.74-0.64,9.06-1.92,12.94
			c-1.28,3.89-3.25,7.75-5.92,11.58c-2.67,3.83-6.02,7.78-10.03,11.85c-4.01,4.07-8.81,8.54-14.4,13.4l-34.09,30.26h67.63v13.13
			h-89.15v-11.14l46.3-40.9c4.86-4.38,8.99-8.33,12.4-11.87c3.4-3.53,6.17-6.85,8.29-9.95c2.12-3.1,3.65-6.15,4.56-9.13
			c0.91-2.98,1.37-6.06,1.37-9.22c0-3.77-0.7-7.15-2.1-10.13c-1.4-2.98-3.25-5.54-5.56-7.67c-2.31-2.13-5.04-3.77-8.2-4.93
			c-3.16-1.16-6.44-1.73-9.84-1.73C1520.26,1259.79,1514,1261.65,1508.78,1265.35z"/>
		<path class="st6" d="M1741.58,1247.94v86.23h19.87v12.03h-19.87v30.26h-13.86v-30.26h-67.27l-3.65-10.39l72.19-87.87H1741.58z
			 M1727.73,1268.36l-53.6,65.81h53.6V1268.36z"/>
	</g>
</g>
</svg>
